PathFileType	4	(X/Y/Z)	C:/Users/opensim2020/Desktop/walking_exp_matlab/subject03_walking11_straight_02.trc																																																																																																																																								
DataRate	CameraRate	NumFrames	NumMarkers	Units	OrigDataRate	OrigDataStartFrame	OrigNumFrames																																																																																																																																				
100	100	6	46	mm	100	1932	357																																																																																																																																				
Frame#	Time	LFHD			RFHD			LBHD			RBHD			C7			T10			CLAV			STRN			RBAK			LSHO			LUPA			LELB			LFRM			LWRA			LWRB			LFIN			RSHO			RUPA			RELB			RFRM			RWRA			RWRB			RFIN			LASI			RASI			LPSI			RPSI			LTHI			LKNE			LTIB			LANK			LHEE			LTOE			RTHI			RKNE			RTIB			RANK			RHEE			RTOE			*39			*40			*41			*42			*43			*44			*45		
		X1	Y1	Z1	X2	Y2	Z2	X3	Y3	Z3	X4	Y4	Z4	X5	Y5	Z5	X6	Y6	Z6	X7	Y7	Z7	X8	Y8	Z8	X9	Y9	Z9	X10	Y10	Z10	X11	Y11	Z11	X12	Y12	Z12	X13	Y13	Z13	X14	Y14	Z14	X15	Y15	Z15	X16	Y16	Z16	X17	Y17	Z17	X18	Y18	Z18	X19	Y19	Z19	X20	Y20	Z20	X21	Y21	Z21	X22	Y22	Z22	X23	Y23	Z23	X24	Y24	Z24	X25	Y25	Z25	X26	Y26	Z26	X27	Y27	Z27	X28	Y28	Z28	X29	Y29	Z29	X30	Y30	Z30	X31	Y31	Z31	X32	Y32	Z32	X33	Y33	Z33	X34	Y34	Z34	X35	Y35	Z35	X36	Y36	Z36	X37	Y37	Z37	X38	Y38	Z38	X39	Y39	Z39	X40	Y40	Z40	X41	Y41	Z41	X42	Y42	Z42	X43	Y43	Z43	X44	Y44	Z44	X45	Y45	Z45	X46	Y46	Z46
																																																																																																																																											
134	1.33	-155.50616	1606.5376	958.67236	-161.09105	1608.89294	1091.48096	-287.46933	1576.61194	957.05597	-288.08704	1578.17163	1088.13733	-330.99823	1411.99988	1023.23309	-371.38858	1098.35376	1024.04675	-212.65741	1332.06604	1011.9903	-172.03822	1167.51685	1005.16595	-377.7283	1237.95056	1127.81482	-273.92462	1369.27502	860.28723	-310.00818	1172.26782	793.38977	-316.86795	1049.28174	781.24854	-293.4137	921.33472	778.14948	-268.67322	804.61597	806.54779	-301.81555	808.02051	761.69604	-282.72714	725.638	768.64685	-238.46031	1356.50574	1174.24573	-193.40445	1142.14233	1249.53589	-150.4651	1038.20703	1259.6792	-93.43022	914.24329	1251.62634	-43.60749	833.86389	1205.12402	-61.69461	819.09729	1253.3009	-18.12427	761.1554	1235.6084	-207.67709	931.69421	901.85284	-203.54733	933.30176	1138.8811	-369.6586	950.65466	952.5094	-364.80264	966.367	1102.00244	-205.56723	630.83295	852.44629	-137.54294	467.53458	896.10638	-132.02457	276.40701	895.50244	-77.58868	70.54079	927.74915	-103.44866	28.23847	970.21387	76.36657	67.80191	940.81921	-293.76633	642.89532	1174.39111	-312.94162	464.06573	1137.6084	-398.80893	290.13504	1135.24011	-469.68027	85.15928	1080.14087	-517.35382	62.94392	1028.87781	-333.02145	30.00643	1060.06482	-233.07866	1673.36487	1013.20721	NaN	NaN	NaN	NaN	NaN	NaN	NaN	NaN	NaN	NaN	NaN	NaN	NaN	NaN	NaN	NaN	NaN	NaN
135	1.34	-148.52696	1605.97034	958.23993	-154.31783	1608.42151	1091.01428	-280.37088	1575.70313	956.45062	-281.23743	1577.27185	1087.43384	-323.71301	1411.24695	1022.29767	-363.91864	1097.63635	1022.67242	-205.3029	1331.36389	1011.54907	-164.65341	1166.80981	1004.86053	-370.89951	1237.1228	1126.53699	-266.00894	1368.59521	859.61188	-302.06561	1171.49036	792.80896	-308.94269	1048.44531	780.89703	-285.90536	920.35217	778.05756	-260.9136	803.65442	806.61206	-294.70029	807.08984	761.75488	-276.07883	724.48267	769.02118	-231.88115	1355.74915	1173.75012	-187.06529	1141.23169	1248.81665	-144.04115	1037.35693	1258.86243	-86.29095	913.79962	1250.33398	-35.88019	834.00653	1203.4917	-54.09806	818.83356	1251.55969	-10.09679	761.25592	1233.58691	-199.94707	930.67261	901.62811	-197.01776	932.56335	1138.61047	-361.98105	949.97461	951.14252	-357.98987	965.68787	1100.64111	-198.77626	629.48181	852.97357	-131.72672	466.10336	897.75616	-123.42549	275.77878	896.40094	-65.74458	70.67177	928.12225	-91.1347	27.72337	970.34064	88.28556	69.88316	941.17609	-288.46545	642.60602	1174.03589	-308.44638	463.76727	1137.49207	-396.08566	290.58762	1135.08545	-469.07999	86.28436	1080.18689	-516.87561	64.4724	1028.83203	-332.98865	29.81514	1059.94177	-226.42014	1672.66272	1012.59003	NaN	NaN	NaN	NaN	NaN	NaN	NaN	NaN	NaN	NaN	NaN	NaN	NaN	NaN	NaN	NaN	NaN	NaN
136	1.35	-141.56789	1605.52673	957.75031	-147.53593	1608.00476	1090.49512	-273.50092	1575.00281	955.85144	-274.33405	1576.48364	1086.66931	-316.46182	1410.48877	1021.45703	-356.38965	1096.91748	1021.3736	-197.88805	1330.67615	1011.07953	-157.19203	1166.09375	1004.58478	-364.02914	1236.30042	1125.1333	-257.95761	1367.875	858.81537	-293.94061	1170.70569	792.19012	-301.09116	1047.48755	780.30261	-278.1626	919.35516	777.92468	-253.7496	802.75415	806.38086	-287.29507	806.12964	761.78613	-269.69067	723.42212	769.6507	-225.17883	1354.89001	1173.14001	-180.74788	1140.27832	1248.04187	-137.69258	1036.47144	1257.98987	-79.40254	913.22986	1248.99219	-28.42878	833.9765	1201.96448	-46.81608	818.35364	1249.81445	-2.36754	761.11786	1231.67358	-191.77126	929.82947	901.14819	-190.35268	931.81573	1138.35657	-354.1218	949.31506	949.70728	-351.14371	965.00616	1099.24255	-191.57788	628.18475	853.6048	-125.26766	464.8165	899.12146	-115.29858	275.14563	897.21008	-55.79391	70.36759	928.46765	-80.73175	27.10548	970.6557	98.35407	70.84126	941.6297	-282.98193	642.3078	1173.65198	-303.96243	463.52399	1137.1864	-393.25311	291.12238	1134.94385	-468.37009	87.50276	1080.23035	-516.36206	66.19862	1028.77039	-332.86652	29.7449	1060.01709	-219.76057	1672.05298	1012.09204	NaN	NaN	NaN	NaN	NaN	NaN	NaN	NaN	NaN	NaN	NaN	NaN	NaN	NaN	NaN	NaN	NaN	NaN
137	1.36	-134.6433	1605.10132	957.17047	-140.74603	1607.58521	1089.9729	-266.27487	1574.12732	955.08105	-267.44559	1575.73389	1086.06079	-309.1088	1409.82556	1020.50555	-348.85126	1096.22534	1019.99115	-190.38525	1330.09106	1010.55005	-149.60327	1165.42981	1004.3006	-357.11328	1235.52637	1123.72961	-249.79059	1367.15039	858.00708	-285.64093	1169.91614	791.54193	-292.64102	1046.49438	779.8288	-270.20544	918.36145	777.80664	-246.57301	801.57855	806.5907	-279.72125	805.13275	761.7406	-262.47528	722.29724	769.84625	-218.49904	1354.146	1172.55493	-174.49751	1139.31775	1247.24451	-131.42024	1035.53125	1257.02197	-72.78107	912.55408	1247.6864	-21.29597	833.71381	1200.45447	-39.88679	817.8092	1248.2157	4.90538	760.86609	1229.8468	-183.51619	928.90369	900.70026	-183.50691	931.10687	1138.21411	-346.20374	948.73083	948.23364	-344.06863	964.37628	1097.79773	-184.02888	627.0163	854.29132	-118.85321	463.62201	900.3327	-107.7811	274.36337	897.86395	-47.59228	69.79281	929.30981	-72.68781	26.38985	971.18213	106.63907	70.64345	942.39038	-277.3067	642.05603	1173.28723	-299.168	463.29327	1137.05969	-390.25021	291.71729	1134.86169	-467.56866	88.80584	1080.23608	-515.78741	68.07227	1028.7478	-332.81537	29.55047	1060.19202	-213.0313	1671.44946	1011.47552	NaN	NaN	NaN	NaN	NaN	NaN	NaN	NaN	NaN	NaN	NaN	NaN	NaN	NaN	NaN	NaN	NaN	NaN
138	1.37	-127.6584	1604.91675	956.60858	-133.98112	1607.22131	1089.4353	-259.20438	1573.48364	954.33997	-260.58054	1574.97681	1085.20776	-301.68362	1409.12183	1019.24023	-341.12546	1095.53821	1018.57709	-182.85222	1329.46814	1010.00342	-141.95111	1164.82996	1003.94666	-350.13644	1234.75732	1122.25305	-241.57378	1366.46606	857.15918	-276.90173	1169.05115	790.77905	-283.6604	1045.7052	779.52441	-262.01331	917.37238	777.61163	-238.9836	800.45538	806.68481	-271.75955	804.20044	761.46429	-255.39096	721.24048	770.09436	-211.82698	1353.46619	1171.92542	-168.32285	1138.39685	1246.30774	-125.23705	1034.45691	1255.93787	-66.38105	911.75177	1246.39941	-14.47745	833.33466	1198.9906	-33.16426	817.01624	1246.46875	11.71879	760.40448	1228.17493	-175.34526	927.99689	900.32465	-176.52577	930.50909	1137.84558	-338.03281	948.16779	946.83862	-336.85941	963.84827	1096.35791	-176.23091	625.95844	854.86456	-111.85477	462.51758	901.13745	-101.08473	273.31683	898.46204	-41.29677	68.64338	930.27142	-66.60847	25.361	972.01306	112.84038	69.16386	943.63824	-271.46658	641.8042	1172.96228	-294.00177	463.04291	1137.04333	-387.09509	292.35901	1134.81775	-466.8356	90.34528	1080.42664	-515.0943	70.05045	1028.82703	-332.7135	29.51958	1060.30029	-206.29346	1670.81555	1010.65253	NaN	NaN	NaN	NaN	NaN	NaN	NaN	NaN	NaN	NaN	NaN	NaN	NaN	NaN	NaN	NaN	NaN	NaN
139	1.38	-120.59202	1604.52722	956.03912	-127.1525	1606.85864	1088.85547	-251.97195	1572.65161	953.47003	-253.66678	1574.31091	1084.34082	-294.20267	1408.35388	1018.14813	-333.31619	1094.83142	1017.17279	-175.23006	1328.92786	1009.39093	-134.12971	1164.2854	1003.58331	-343.11066	1234.00867	1120.72131	-233.17523	1365.81689	856.22253	-268.27066	1168.28442	790.08295	-274.72372	1044.82617	778.99744	-253.55333	916.39874	777.36755	-231.75186	799.26959	807.48279	-263.74457	803.16864	761.39984	-247.9088	720.14856	770.255	-205.13153	1352.83484	1171.21936	-162.20811	1137.49646	1245.31116	-119.22605	1033.58105	1254.86584	-60.05443	910.81097	1245.07239	-7.94168	832.81848	1197.58484	-26.86335	816.19171	1244.88245	18.2185	759.83185	1226.56458	-166.70935	927.21765	899.75311	-169.37263	929.99261	1137.23132	-329.72385	947.6698	945.33606	-329.44162	963.30273	1094.84058	-168.19867	625.10413	855.29419	-104.85289	461.40671	901.62976	-95.32557	271.93884	899.02783	-37.03903	67.0273	931.38696	-63.19873	25.06726	972.62305	117.14852	66.5763	945.35614	-265.508	641.56433	1172.59961	-288.44809	462.71765	1137.18433	-383.70718	293.03918	1134.79492	-465.79129	91.83163	1080.54712	-514.40674	72.29179	1028.90405	-332.55655	29.46825	1060.39282	-199.50937	1670.23279	1009.90131	NaN	NaN	NaN	NaN	NaN	NaN	NaN	NaN	NaN	NaN	NaN	NaN	NaN	NaN	NaN	NaN	NaN	NaN
